<svg class="icon search" xmlns="http://www.w3.org/2000/svg" width="33" height="33" viewBox="0 0 33 33" version="1.1">
  <g stroke="none" stroke-width="1" fill="none" fill-rule="evenodd">
    <path class="shadow" d="M3.53 3.49C-1.12 8.15-1.13 15.7 3.53 20.35 7.51 24.33 13.62 24.89 18.19 22.09L27.32 31.22C28.41 32.31 30.18 32.31 31.26 31.22 32.35 30.14 32.35 28.37 31.26 27.29L22.12 18.15C24.93 13.58 24.36 7.47 20.39 3.5 15.73-1.16 8.19-1.17 3.53 3.49L3.53 3.49ZM17.69 17.64C14.53 20.81 9.4 20.81 6.24 17.64 3.08 14.48 3.08 9.36 6.24 6.2 9.4 3.04 14.53 3.04 17.68 6.2 20.85 9.36 20.85 14.49 17.69 17.64L17.69 17.64Z" fill="#3B3D3F"/>
    <path class="highlight" d="M6.23 6.19C9.39 3.02 14.51 3.02 17.67 6.18 20.83 9.34 20.83 14.46 17.67 17.62 17.66 17.62 31.26 31.23 31.26 31.23 32.35 30.14 32.35 28.38 31.26 27.29L22.12 18.16C24.93 13.58 24.36 7.47 20.38 3.49 15.73-1.17 8.18-1.17 3.52 3.48 3.52 3.48 6.23 6.19 6.23 6.19Z" fill="#535556"/>
  </g>
</svg>
